<svg width="1200" height="675" viewBox="0 0 1200 675" fill="none" xmlns="http://www.w3.org/2000/svg">
  <rect width="1200" height="675" rx="40" fill="#EAF2EE"/>
  <rect x="70" y="76" width="1060" height="523" rx="28" fill="#F8FCF9"/>
  <path d="M888 88C1010 148 1102 255 1122 402C1142 549 1044 624 898 624H1130V88H888Z" fill="#2E5B4E" fill-opacity="0.12"/>
  <rect x="122" y="144" width="182" height="36" rx="18" fill="#B14C37"/>
  <rect x="122" y="214" width="558" height="44" rx="12" fill="#243635"/>
  <rect x="122" y="278" width="624" height="44" rx="12" fill="#243635"/>
  <rect x="122" y="366" width="420" height="24" rx="12" fill="#7F8C86"/>
  <rect x="122" y="410" width="496" height="24" rx="12" fill="#7F8C86"/>
  <rect x="122" y="454" width="346" height="24" rx="12" fill="#7F8C86"/>
  <rect x="122" y="526" width="204" height="28" rx="14" fill="#243635"/>
  <rect x="798" y="208" width="224" height="248" rx="28" fill="#D7E7DE"/>
  <rect x="844" y="252" width="132" height="18" rx="9" fill="#2E5B4E" fill-opacity="0.68"/>
  <rect x="844" y="292" width="110" height="18" rx="9" fill="#2E5B4E" fill-opacity="0.48"/>
  <rect x="844" y="332" width="138" height="18" rx="9" fill="#2E5B4E" fill-opacity="0.48"/>
</svg>